<svg width="24" height="24" viewBox="0 0 24 24" fill="none" xmlns="http://www.w3.org/2000/svg">
  <path d="M12 22C17.5228 22 22 17.5228 22 12C22 6.47715 17.5228 2 12 2C6.47715 2 2 6.47715 2 12C2 17.5228 6.47715 22 12 22Z" stroke="currentColor" stroke-width="2"/>
  <path d="M15 8.5C15 7.11929 13.6569 6 12 6C10.3431 6 9 7.11929 9 8.5C9 9.88071 10.3431 11 12 11" stroke="currentColor" stroke-width="2" stroke-linecap="round"/>
  <path d="M12 11C13.6569 11 15 12.1193 15 13.5C15 14.8807 13.6569 16 12 16C10.3431 16 9 14.8807 9 13.5" stroke="currentColor" stroke-width="2" stroke-linecap="round"/>
  <line x1="12" y1="11" x2="12" y2="16" stroke="currentColor" stroke-width="2"/>
</svg> 